<svg width="528" height="528" viewBox="0 0 528 528" fill="none" xmlns="http://www.w3.org/2000/svg">
<g clip-path="url(#clip0_151_150)">
<path d="M404.25 0H123.75C55.4048 0 0 55.4048 0 123.75V404.25C0 472.595 55.4048 528 123.75 528H404.25C472.595 528 528 472.595 528 404.25V123.75C528 55.4048 472.595 0 404.25 0Z" fill="#00005B"/>
<path d="M216.886 321.997H135.046L118.325 373.917C117.886 375.897 116.127 377.217 114.147 376.998H72.7853C70.366 376.998 69.706 375.678 70.366 373.038L141.207 169.977C141.867 167.778 142.527 165.798 143.405 163.158C144.286 158.538 144.725 153.697 144.725 148.857C144.507 147.757 145.385 146.658 146.485 146.438H203.465C205.006 146.438 206.105 147.097 206.326 148.197L286.625 372.597C287.285 375.018 286.625 376.118 284.427 376.118H238.445C236.907 376.338 235.366 375.237 234.927 373.698L216.886 320.898V321.997ZM147.807 278.217H203.686C202.366 273.597 200.605 268.098 198.625 262.377C196.645 256.437 194.665 250.058 192.685 243.458C190.486 236.637 188.506 230.037 186.305 223.218C184.105 216.397 182.127 210.018 180.365 203.637C178.606 197.478 177.065 191.757 175.525 186.477H175.085C173.105 195.938 170.686 205.398 167.605 214.857C164.305 225.417 161.005 236.418 157.486 247.417C154.625 258.637 151.105 268.977 147.807 278.217ZM416.206 302.198H346.467C347.345 309.018 349.546 315.837 353.285 321.777C357.245 327.717 362.746 332.337 369.346 334.977C378.147 338.718 387.826 340.698 397.505 340.478C405.207 340.257 412.906 339.597 420.387 338.058C427.096 337.179 433.672 335.479 439.966 332.997C441.065 332.118 441.725 332.558 441.725 334.758V368.418C441.725 369.297 441.507 370.177 441.286 371.058C440.847 371.718 440.405 372.158 439.745 372.597C432.71 375.687 425.322 377.904 417.747 379.197C407.455 381.176 396.984 382.061 386.506 381.837C369.785 381.837 355.707 379.197 344.266 374.137C333.485 369.517 324.027 362.257 316.546 353.238C309.58 344.762 304.415 334.956 301.366 324.417C298.287 314.077 296.746 303.297 296.746 292.298C296.746 280.417 298.505 268.758 302.247 257.318C305.754 246.302 311.357 236.068 318.747 227.178C326.007 218.378 335.026 211.338 345.365 206.277C355.707 201.218 368.026 199.458 382.107 199.458C393.766 199.238 405.425 201.438 416.206 206.277C425.225 210.237 433.145 216.177 439.306 223.878C445.025 231.357 449.645 239.718 452.506 248.958C455.367 257.757 456.687 266.778 456.687 275.798C456.687 281.077 456.466 285.697 456.245 289.878C455.806 294.057 455.585 297.138 455.367 299.118C455.146 300.657 453.826 301.977 452.285 301.977C450.965 301.977 448.546 302.197 445.025 302.418C441.507 302.857 437.326 303.078 432.267 303.078C427.205 303.078 421.925 302.198 416.206 302.198ZM346.467 270.078H392.885C398.607 270.078 402.785 270.078 405.425 269.857C407.187 269.637 408.946 269.198 410.487 268.098V265.897C410.495 263.13 410.049 260.38 409.167 257.757C405.207 245.438 393.545 237.078 380.566 237.518C374.595 237.183 368.655 238.584 363.463 241.551C358.271 244.518 354.048 248.924 351.305 254.238C348.665 259.297 347.127 264.578 346.467 270.078Z" fill="#9999FF"/>
</g>
<defs>
<clipPath id="clip0_151_150">
<rect width="528" height="528" fill="white"/>
</clipPath>
</defs>
</svg>
