<svg width="132" height="130" viewBox="0 0 132 130" fill="none" xmlns="http://www.w3.org/2000/svg">
<path d="M66 0.917969C57.3328 0.917969 48.7504 2.62773 40.7429 5.94963C32.7354 9.27154 25.4596 14.1405 19.331 20.2786C6.95355 32.675 0 49.4881 0 67.0193C0 96.2361 18.942 121.024 45.144 129.816C48.444 130.344 49.5 128.295 49.5 126.511V115.339C31.218 119.305 27.324 106.482 27.324 106.482C24.288 98.814 19.998 96.7649 19.998 96.7649C13.992 92.6666 20.46 92.7988 20.46 92.7988C27.06 93.2615 30.558 99.6073 30.558 99.6073C36.3 109.655 46.002 106.68 49.764 105.094C50.358 100.797 52.074 97.8886 53.922 96.2361C39.27 94.5836 23.892 88.8989 23.892 63.7142C23.892 56.377 26.4 50.494 30.69 45.8008C30.03 44.1482 27.72 37.2737 31.35 28.35C31.35 28.35 36.894 26.5653 49.5 35.0924C54.714 33.6381 60.39 32.911 66 32.911C71.61 32.911 77.286 33.6381 82.5 35.0924C95.106 26.5653 100.65 28.35 100.65 28.35C104.28 37.2737 101.97 44.1482 101.31 45.8008C105.6 50.494 108.108 56.377 108.108 63.7142C108.108 88.965 92.664 94.5175 77.946 96.17C80.322 98.2191 82.5 102.251 82.5 108.399V126.511C82.5 128.295 83.556 130.41 86.922 129.816C113.124 120.958 132 96.2361 132 67.0193C132 58.3388 130.293 49.7432 126.976 41.7234C123.659 33.7036 118.798 26.4167 112.669 20.2786C106.54 14.1405 99.2646 9.27154 91.2571 5.94963C83.2496 2.62773 74.6672 0.917969 66 0.917969Z" fill="white"/>
</svg>
