<svg width="116" height="117" viewBox="0 0 116 117" fill="none" xmlns="http://www.w3.org/2000/svg">
<g clip-path="url(#clip0_185_121)">
<path d="M0 0.976562H116V116.977H0V0.976562Z" fill="#F7DF1E"/>
<path d="M30.5005 97.9145L39.3772 92.5423C41.09 95.5786 42.6478 98.1479 46.3848 98.1479C49.9667 98.1479 52.2255 96.7468 52.2255 91.2966V54.2319H63.1264V91.4507C63.1264 102.741 56.508 107.881 46.8519 107.881C38.1315 107.881 33.0697 103.364 30.5 97.9136M69.0473 96.7463L77.9232 91.6075C80.2599 95.4232 83.2968 98.2263 88.669 98.2263C93.1862 98.2263 96.0663 95.9679 96.0663 92.8531C96.0663 89.1157 93.1074 87.7917 88.1239 85.6122L85.3993 84.4431C77.5344 81.0959 72.3176 76.8909 72.3176 68.0142C72.3176 59.838 78.5467 53.6084 88.2802 53.6084C95.2103 53.6084 100.194 56.0226 103.775 62.3297L95.2874 67.7808C93.4182 64.4326 91.3946 63.1091 88.2798 63.1091C85.0871 63.1091 83.0625 65.1336 83.0625 67.7808C83.0625 71.051 85.0871 72.3755 89.7588 74.4L92.4839 75.5677C101.75 79.5394 106.967 83.5881 106.967 92.6977C106.967 102.51 99.2585 107.882 88.9024 107.882C78.78 107.882 72.2392 103.054 69.0469 96.7468" fill="black"/>
</g>
<defs>
<clipPath id="clip0_185_121">
<rect width="116" height="116" fill="white" transform="translate(0 0.976562)"/>
</clipPath>
</defs>
</svg>
