<svg width="135" height="132" viewBox="0 0 135 132" fill="none" xmlns="http://www.w3.org/2000/svg">
<g clip-path="url(#clip0_185_91)">
<path d="M112.036 0.288086H22.3022C9.98505 0.288086 0 10.2671 0 22.5768V108.9C0 121.209 9.98505 131.188 22.3022 131.188H112.036C124.353 131.188 134.338 121.209 134.338 108.9V22.5768C134.338 10.2671 124.353 0.288086 112.036 0.288086Z" fill="#001E36"/>
<path d="M70.5498 92.8035H35.043C34.4416 92.8035 34.1415 92.4731 34.142 91.8123V34.6226C34.1262 34.5125 34.1363 34.4003 34.1715 34.2948C34.2066 34.1892 34.2659 34.0933 34.3446 34.0147C34.4232 33.936 34.5191 33.8767 34.6247 33.8415C34.7303 33.8063 34.8426 33.7962 34.9528 33.8119H45.9475C46.0332 33.7998 46.1205 33.8078 46.2026 33.8352C46.2847 33.8627 46.3593 33.9088 46.4204 33.97C46.4816 34.0312 46.5277 34.1057 46.5551 34.1878C46.5825 34.2698 46.5904 34.3571 46.5783 34.4428V81.4562H72.442C72.9825 81.4562 73.193 81.7263 73.0733 82.2665L71.4508 91.9933C71.4469 92.126 71.4124 92.2561 71.3499 92.3733C71.2873 92.4905 71.1985 92.5916 71.0903 92.6688C70.9232 92.7556 70.738 92.8019 70.5498 92.8041M79.4706 48.042H89.2936C89.8415 48.0473 90.32 48.4144 90.4649 48.943C90.6795 49.3375 90.8317 49.7628 90.9162 50.2038C91.0416 50.7833 91.1313 51.3696 91.1859 51.9601C91.2452 52.5905 91.2751 53.266 91.2761 53.9866C92.9607 52.0262 94.9922 50.3928 97.2689 49.168C99.8265 47.786 102.698 47.0879 105.605 47.1416C105.715 47.1259 105.828 47.136 105.933 47.1712C106.039 47.2064 106.135 47.2657 106.213 47.3444C106.292 47.423 106.351 47.5189 106.386 47.6245C106.422 47.73 106.432 47.8422 106.416 47.9523V58.8502C106.416 59.2708 106.116 59.4806 105.515 59.4806C101.885 59.256 98.2536 59.9045 94.9258 61.3717C93.7949 61.8606 92.7697 62.5641 91.9069 63.4433V91.9938C91.9069 92.534 91.6666 92.8041 91.1859 92.8041H80.2814C80.159 92.8216 80.0342 92.8104 79.9169 92.7714C79.7995 92.7323 79.6929 92.6665 79.6055 92.5791C79.5181 92.4917 79.4522 92.3852 79.4131 92.2679C79.374 92.1507 79.3628 92.0259 79.3804 91.9036V60.9212C79.3804 60.1671 79.3757 59.3878 79.3657 58.5838L79.3473 57.3598C79.3437 57.1526 79.34 56.9439 79.3353 56.7336C79.3123 55.6385 79.2812 54.5436 79.2419 53.449L79.1999 52.3655C79.1601 51.1282 79.0399 49.8947 78.8399 48.6729C78.8188 48.5913 78.8179 48.5057 78.8374 48.4237C78.8569 48.3416 78.8961 48.2656 78.9517 48.2022C79.0073 48.1387 79.0776 48.0898 79.1564 48.0597C79.2353 48.0296 79.3202 48.0192 79.404 48.0294L79.4706 48.042Z" fill="#31A8FF"/>
</g>
<defs>
<clipPath id="clip0_185_91">
<rect width="134.338" height="131.11" fill="white" transform="translate(0 0.288086)"/>
</clipPath>
</defs>
</svg>
