<svg width="669" height="456" viewBox="0 0 669 456" fill="none" xmlns="http://www.w3.org/2000/svg">
<g clip-path="url(#clip0_151_142)">
<path d="M199.014 300.904L219.346 366.87C223.914 381.847 225.819 392.303 225.056 398.262C236.175 368.482 243.945 336.029 248.365 300.904H272.812C262.3 358.088 248.435 399.643 231.226 425.566C217.817 445.542 203.128 455.53 187.132 455.53C182.867 455.53 177.609 454.242 171.37 451.683V437.899C174.418 438.346 177.994 438.585 182.108 438.585C189.57 438.585 195.584 436.516 200.16 432.389C205.639 427.36 208.382 421.708 208.382 415.442C208.382 411.165 206.243 402.386 201.984 389.106L173.656 300.904H199.014ZM43.4105 260.359L80.6498 373.975H80.8797L118.348 260.359H148.96C155.663 316.705 159.622 368.259 160.837 414.989H135.028C134.12 371.306 131.605 330.229 127.492 291.752H127.267L87.9657 414.989H68.3112L29.2478 291.752H29.0179C26.1197 328.704 24.2957 369.781 23.5352 414.989H0C1.52093 360.008 5.32717 308.469 11.4187 260.359H43.4105Z" fill="#00758F"/>
<path d="M460.587 258.065C500.644 258.065 520.674 283.656 520.674 334.813C520.674 362.612 514.65 383.61 502.615 397.795C500.446 400.388 498.048 402.627 495.524 404.702L523.871 418.718L523.844 418.717L513.779 436.097L476.862 414.558C470.743 416.37 464.01 417.275 456.673 417.275C437.004 417.275 422.313 411.543 412.599 400.094C401.937 387.428 396.608 367.488 396.608 340.308C396.608 312.666 402.621 291.747 414.661 277.543C425.626 264.551 440.937 258.065 460.587 258.065ZM337.919 258.288C352.236 258.288 365.254 262.119 376.98 269.754L371.024 283.025C360.991 278.76 351.098 276.618 341.343 276.618C333.427 276.618 327.328 278.523 323.076 282.357C318.8 286.156 316.156 291.046 316.156 297.006C316.156 306.166 322.681 314.108 334.73 320.819C338.677 322.977 342.61 325.159 346.53 327.366L347.429 327.872L347.88 328.125L348.78 328.631L349.229 328.885L350.128 329.392C359.249 334.533 367.831 339.441 367.831 339.441C379.878 347.992 385.883 357.11 385.883 372.126C385.883 385.24 381.078 396.005 371.497 404.429C361.91 412.815 349.031 417.019 332.902 417.019C317.817 417.019 303.197 412.18 289.035 402.582L295.66 389.299C307.847 395.407 318.875 398.458 328.778 398.458C338.066 398.458 345.336 396.384 350.595 392.29C355.844 388.165 358.989 382.412 358.989 375.117C358.989 365.936 352.602 358.087 340.885 351.503C337.218 349.477 333.561 347.431 329.916 345.366L329.018 344.858C327.369 343.926 325.709 342.983 324.082 342.059L323.2 341.557C315.288 337.057 308.448 333.126 308.448 333.126C296.735 324.558 290.862 315.367 290.862 300.221C290.862 287.694 295.242 277.57 303.988 269.867C312.756 262.148 324.068 258.288 337.919 258.288ZM567.751 260.358V395.966H616.407V414.988H543.074V260.359L567.751 260.358ZM643.444 396.025V399.239H638.095V414.971H634.005V399.239H628.448V396.025H643.444ZM653.323 396.025L658.459 408.939L663.177 396.025H668.975V414.971H665.12V400.552L659.75 414.971H656.971L651.591 400.552H651.385V414.971H647.738V396.025H653.323ZM458.067 277.081C434.462 277.081 422.652 296.562 422.652 335.499C422.652 357.802 425.782 373.975 432.029 384.055C437.814 393.384 446.876 398.04 459.215 398.04C482.82 398.04 494.629 378.407 494.629 339.16C494.629 317.168 491.499 301.134 485.26 291.048C479.468 281.74 470.41 277.081 458.069 277.081" fill="#F29111"/>
<path d="M396.196 9.58132C404.026 -9.65953 431.407 4.91156 442.033 11.6327C444.637 13.3142 447.624 16.8669 450.609 18.18C455.268 18.3629 459.922 18.7274 464.588 18.9221C473.34 20.9787 481.538 22.659 488.434 26.5866C520.483 45.4603 541.347 64.6933 560.548 96.4617C564.65 103.191 566.701 110.472 570.052 117.754C574.704 128.608 579.93 140.001 585.329 150.265C587.747 155.13 589.616 160.541 592.973 164.65C594.284 166.529 598.006 167.083 600.232 168.205C606.383 171.389 613.836 173.807 619.622 177.544C630.427 184.28 640.873 192.308 650.37 200.526C653.91 203.699 656.322 208.19 659.694 211.545V213.238C656.701 214.157 653.718 215.098 650.732 215.851C644.21 217.526 638.434 217.148 632.107 218.824C628.198 219.958 623.343 221.454 619.243 221.834L619.622 222.216C622.034 229.108 635.085 234.713 641.054 238.836C648.303 244.067 655.02 250.412 660.427 257.699C662.294 259.558 664.162 261.25 666.02 263.104C667.318 264.983 667.684 267.413 668.999 269.088V269.656C667.543 269.142 666.497 268.162 665.505 267.138L664.913 266.52C664.321 265.906 663.724 265.302 663.043 264.804C658.93 261.995 654.845 258.634 650.732 256.023C643.66 251.536 635.459 248.932 628.198 244.428C624.092 241.813 620.179 238.836 616.265 235.844C612.718 233.221 608.811 228.186 606.582 224.449C605.269 222.384 605.088 219.958 603.588 218.465C603.856 215.97 606.142 215.229 608.448 214.621L608.978 214.481C609.774 214.274 610.553 214.068 611.232 213.795C620.92 209.682 632.469 208.19 647.383 208.563C646.821 204.819 637.502 200.153 634.527 197.911C628.556 193.607 622.233 189.116 615.898 185.199C612.541 183.147 606.757 181.65 603.038 179.974C598.006 177.917 586.823 175.862 584.034 171.945C579.298 165.77 575.895 158.405 572.592 150.965L571.693 148.934C571.393 148.258 571.093 147.581 570.792 146.905C566.887 137.946 562.037 128.605 558.124 119.432C556.078 114.957 555.138 111.029 552.897 106.737C539.299 80.3985 519.173 58.3472 494.771 42.8393C486.752 37.7932 477.811 33.1235 467.941 29.9498C462.347 28.2603 455.634 29.1945 449.674 27.8984H445.751C442.404 26.955 439.609 23.4063 436.997 21.5353C431.228 17.6182 425.45 14.988 418.551 12.1932C416.134 11.0721 409.231 8.46157 406.821 10.5168C405.329 10.8918 404.573 11.455 404.205 12.9523C402.721 15.1866 404.026 18.5524 404.95 20.6129C407.749 26.584 411.659 30.1327 415.207 35.1787C418.364 39.6538 422.285 44.6999 424.524 49.5656C429.353 60.0249 431.602 71.613 436.077 82.0709C437.736 86.0038 440.362 90.4789 442.777 94.0262C444.825 96.8419 448.548 98.8776 449.674 102.442C451.919 106.179 446.313 118.509 445.016 122.425C440.162 137.747 441.102 159.046 446.692 172.328L446.99 173.028L447.288 173.737C449.329 178.602 451.514 183.84 456.94 185.2C457.314 184.829 456.94 185.024 457.681 184.829C458.994 174.549 459.364 164.649 462.908 156.605C464.955 151.576 469.044 148.021 471.846 143.916C473.715 145.034 473.715 148.407 474.828 150.638C477.253 156.426 479.857 162.773 482.847 168.578C488.983 180.533 495.887 192.124 503.71 202.582C506.33 206.317 510.047 210.429 513.4 213.794C514.894 215.096 516.566 215.849 517.688 217.525H518.054V218.09C512.465 216.029 508.921 210.246 504.463 206.87C496.069 200.524 486.017 190.994 480.231 181.849C477.811 176.599 475.195 171.567 472.587 166.343V165.966C471.473 167.458 471.846 168.94 471.288 171.197C468.868 180.533 470.732 191.183 462.347 194.541C452.843 198.474 445.753 188.195 442.777 183.524C433.27 168.02 430.666 141.864 437.371 120.751C438.86 116.078 439.063 110.472 441.663 106.741C441.101 103.367 438.501 102.445 436.997 100.378C434.389 96.8446 432.156 92.7288 430.114 88.8051C426.191 81.1407 423.4 71.9828 420.422 63.763C419.113 60.4064 418.738 57.0367 417.433 53.8591C415.206 49.009 411.102 44.1432 407.936 39.8524C403.649 33.6853 391.163 21.7326 396.196 9.58132ZM457.31 46.1854C457.808 46.6846 458.409 47.121 459.031 47.5508L459.781 48.0656C460.78 48.7581 461.749 49.4872 462.342 50.4802C463.283 51.7946 463.458 53.0921 464.584 54.4091C464.584 58.8999 463.283 61.8854 460.655 63.746C460.655 63.746 460.476 63.942 460.292 64.1249C458.802 61.1315 457.497 58.1538 455.997 55.163C454.149 52.5525 451.537 50.4815 450.032 47.4986H449.67V47.1236C451.919 46.5683 454.149 46.1854 457.31 46.1854Z" fill="#00758F"/>
</g>
<defs>
<clipPath id="clip0_151_142">
<rect width="669" height="456" fill="white"/>
</clipPath>
</defs>
</svg>
