<svg width="528" height="528" viewBox="0 0 528 528" fill="none" xmlns="http://www.w3.org/2000/svg">
<g clip-path="url(#clip0_151_146)">
<path d="M404.25 0H123.75C55.4048 0 0 55.4048 0 123.75V404.25C0 472.595 55.4048 528 123.75 528H404.25C472.595 528 528 472.595 528 404.25V123.75C528 55.4048 472.595 0 404.25 0Z" fill="#00005B"/>
<path d="M111.375 376.777V150.177C111.375 148.638 112.035 147.757 113.576 147.757C117.315 147.757 120.836 147.757 125.895 147.537C131.175 147.318 136.676 147.318 142.616 147.097C148.556 146.877 154.935 146.877 161.756 146.658C168.574 146.438 175.174 146.438 181.774 146.438C199.815 146.438 214.774 148.638 227.096 153.258C238.139 157.008 248.209 163.17 256.575 171.297C263.664 178.409 269.141 186.963 272.636 196.377C275.936 205.617 277.695 215.078 277.695 224.978C277.695 243.897 273.296 259.518 264.495 271.838C255.694 284.157 243.375 293.397 229.076 298.677C214.114 304.178 197.614 306.158 179.576 306.158C174.296 306.158 170.775 306.157 168.574 305.937C166.376 305.718 163.294 305.718 159.116 305.718V376.338C159.334 377.877 158.235 379.197 156.694 379.418H114.015C112.256 379.418 111.375 378.537 111.375 376.557V376.777ZM159.334 190.437V264.357C162.416 264.578 165.274 264.798 167.914 264.798H179.576C188.156 264.798 196.736 263.478 204.874 260.838C211.916 258.858 218.074 254.678 222.915 249.177C227.535 243.678 229.736 236.198 229.736 226.518C229.942 219.643 228.186 212.851 224.674 206.937C220.935 201.217 215.655 196.818 209.276 194.397C201.135 191.097 192.334 189.777 183.315 189.998C177.596 189.998 172.534 189.997 168.356 190.218C163.954 189.997 160.875 190.218 159.334 190.437ZM309.375 203.418H347.876C350.076 203.418 351.836 204.957 352.496 206.937C353.156 208.698 353.595 210.457 353.816 212.438C354.255 214.638 354.696 217.057 354.915 219.258C355.136 221.677 355.356 224.318 355.356 227.178C361.962 219.466 369.944 213.05 378.896 208.257C389.016 202.537 400.676 199.677 412.335 199.677C413.876 199.458 415.196 200.557 415.416 202.098V245.877C415.416 247.638 414.315 248.298 411.896 248.298C403.976 248.077 395.835 248.738 388.136 250.497C381.756 251.817 375.596 253.797 369.656 256.437C365.475 258.417 361.515 261.057 358.436 264.577V376.777C358.436 378.978 357.555 379.857 355.575 379.857H312.236C310.476 380.078 308.936 378.978 308.715 377.217V254.457C308.715 249.177 308.715 243.678 308.496 237.957C308.276 232.238 308.276 226.518 308.055 220.797C308.055 215.738 307.616 210.897 307.176 205.838C306.956 204.738 307.616 203.637 308.715 203.418C308.715 203.197 309.156 203.197 309.375 203.418Z" fill="#9999FF"/>
</g>
<defs>
<clipPath id="clip0_151_146">
<rect width="528" height="528" fill="white"/>
</clipPath>
</defs>
</svg>
