<svg width="594" height="594" viewBox="0 0 594 594" fill="none" xmlns="http://www.w3.org/2000/svg">
<g clip-path="url(#clip0_151_154)">
<path d="M546.439 136.883C524.333 102.263 476.798 87.8815 412.749 96.136C410.487 96.4013 408.089 96.8018 405.826 97.067C404.895 94.9397 403.964 92.8072 402.898 90.6798C375.336 32.2222 337.653 0 296.64 0C255.628 0 217.814 32.2222 190.382 90.6798C189.451 92.8072 188.385 94.9397 187.454 97.067C185.056 96.6717 182.794 96.4013 180.531 96.136C116.352 87.7463 68.9472 102.263 46.8415 136.883C24.7411 171.503 31.5289 220.635 65.8836 275.228C70.4139 282.421 75.3396 289.609 80.6657 296.668C75.3396 303.856 70.4139 310.914 65.8836 318.102C31.5289 372.695 24.7411 421.962 46.8415 456.452C64.8173 484.68 99.7078 499.462 146.707 499.462C157.973 499.4 169.223 498.645 180.396 497.194C182.658 496.929 185.056 496.528 187.319 496.263C188.255 498.396 189.186 500.523 190.252 502.656C217.814 561.108 255.498 593.335 296.505 593.335C337.517 593.335 375.336 561.108 402.763 502.656C403.694 500.523 404.76 498.396 405.691 496.263C408.089 496.664 410.351 496.929 412.619 497.194C423.781 498.708 435.037 499.462 446.303 499.462C493.307 499.462 528.193 484.68 546.168 456.452C568.274 421.832 561.481 372.695 527.132 318.102C522.601 310.914 517.676 303.726 512.349 296.668C517.676 289.474 522.601 282.421 527.132 275.228C561.882 220.505 568.674 171.368 546.439 136.883ZM214.485 101.998C236.986 54.0625 266.946 26.6308 296.64 26.6308C326.335 26.6308 356.294 54.0625 378.795 101.998C378.811 102.097 378.857 102.19 378.93 102.263C350.646 109.066 323.058 118.47 296.505 130.355C269.983 118.413 242.385 109.004 214.085 102.263C214.35 102.263 214.35 102.128 214.485 101.998ZM416.614 296.668C416.619 317.972 415.464 339.267 413.15 360.446C396.552 373.84 379.216 386.286 361.22 397.729C340.451 411.066 318.834 423.034 296.505 433.551C274.222 422.951 252.606 410.988 231.795 397.729C213.82 386.255 196.484 373.808 179.865 360.446C175.247 318.05 175.247 275.28 179.865 232.884C215.754 204.043 254.905 179.508 296.505 159.785C318.793 170.38 340.404 182.343 361.22 195.601C379.196 207.075 396.532 219.522 413.15 232.884C415.464 254.069 416.619 275.358 416.614 296.668ZM442.043 257.918C455.083 270.063 467.358 283.004 478.796 296.668C467.358 310.326 455.083 323.267 442.043 335.412C442.844 322.633 443.245 309.718 443.245 296.668C443.245 283.618 442.844 270.703 442.043 257.918ZM407.688 398.265C403.486 421.317 397.385 443.985 389.447 466.038C368.767 461.367 348.471 455.136 328.732 447.397C344.44 439.142 360.154 430.087 375.731 420.235C386.654 413.177 397.307 405.854 407.688 398.265ZM264.548 447.397C244.845 455.235 224.539 461.472 203.833 466.038C195.896 443.985 189.795 421.317 185.592 398.265C195.844 405.854 206.496 413.177 217.549 420.1C233.127 430.087 248.84 439.142 264.548 447.397ZM151.237 335.412C138.198 323.267 125.928 310.326 114.485 296.668C125.928 283.004 138.198 270.063 151.237 257.918C150.436 270.703 150.036 283.618 150.036 296.668C150.036 309.718 150.436 322.633 151.237 335.412ZM185.592 195.07C189.795 172.013 195.896 149.346 203.833 127.297C224.513 131.963 244.814 138.194 264.548 145.939C248.84 154.193 233.127 163.249 217.549 173.1C206.626 180.158 195.974 187.482 185.592 195.07ZM375.601 173.1C360.154 163.249 344.44 154.058 328.597 145.939C348.3 138.1 368.606 131.864 389.317 127.297C397.249 149.346 403.35 172.013 407.558 195.07C397.307 187.482 386.654 180.158 375.601 173.1ZM88.3897 260.981C60.1569 216.24 53.234 176.164 69.2124 151.13C81.9973 131.156 109.694 120.369 147.107 120.369C157.125 120.411 167.132 121.082 177.067 122.366H177.332C166.56 153.689 159.065 186.041 154.967 218.903C134.447 236.02 115.343 254.771 97.8405 274.963C94.5117 270.437 91.318 265.777 88.3897 260.981ZM176.937 470.834C167.002 472.124 156.995 472.79 146.977 472.831C109.559 472.831 81.862 462.179 69.0824 442.071C53.1039 417.037 60.0269 376.96 88.2545 332.219C91.1828 327.558 94.3816 322.763 97.7105 318.102C115.208 338.299 134.312 357.045 154.831 374.162C158.935 407.029 166.43 439.382 177.202 470.699C177.202 470.834 177.067 470.834 176.937 470.834ZM378.795 491.337C356.294 539.273 326.335 566.705 296.64 566.705C266.946 566.705 236.986 539.273 214.485 491.337C214.47 491.239 214.423 491.145 214.35 491.072C242.635 484.269 270.223 474.865 296.775 462.975C323.297 474.922 350.895 484.331 379.196 491.072C378.93 491.072 378.93 491.202 378.795 491.337ZM504.891 332.354C533.123 377.091 540.046 417.172 524.068 442.206C508.089 467.235 468.809 477.757 416.343 470.834H416.078C426.85 439.512 434.35 407.159 438.449 374.297C458.968 357.18 478.073 338.429 495.57 318.238C498.769 322.898 501.962 327.558 504.891 332.354ZM438.314 219.038C434.215 186.171 426.72 153.819 415.948 122.501H416.213C468.674 115.709 507.954 126.096 523.933 151.13C539.911 176.164 532.988 216.24 504.761 260.981C501.832 265.642 498.633 270.437 495.305 275.098C477.885 254.87 458.823 236.119 438.314 219.038Z" fill="url(#paint0_linear_151_154)"/>
<path d="M296.641 243.937C267.519 243.937 243.91 267.545 243.91 296.668C243.91 325.79 267.519 349.393 296.641 349.393C325.763 349.393 349.372 325.79 349.372 296.668C349.351 267.551 325.753 243.957 296.641 243.937ZM296.641 322.763C282.228 322.763 270.541 311.08 270.541 296.668C270.541 282.255 282.228 270.567 296.641 270.567C311.054 270.567 322.741 282.255 322.741 296.668C322.715 311.07 311.044 322.742 296.641 322.763Z" fill="url(#paint1_linear_151_154)"/>
</g>
<defs>
<linearGradient id="paint0_linear_151_154" x1="296.68" y1="-22.9025" x2="296.68" y2="622.639" gradientUnits="userSpaceOnUse">
<stop stop-color="#00EFD1"/>
<stop offset="1" stop-color="#00ACEA"/>
</linearGradient>
<linearGradient id="paint1_linear_151_154" x1="296.641" y1="-22.9026" x2="296.641" y2="622.639" gradientUnits="userSpaceOnUse">
<stop stop-color="#00EFD1"/>
<stop offset="1" stop-color="#00ACEA"/>
</linearGradient>
<clipPath id="clip0_151_154">
<rect width="593.333" height="593.333" fill="white"/>
</clipPath>
</defs>
</svg>
